<?xml version="1.0" encoding="UTF-8"?><svg id="a" xmlns="http://www.w3.org/2000/svg" viewBox="0 0 400 400"><defs><style>.d{fill:#b4a494;fill-rule:evenodd;}</style></defs><g id="b"><path id="c" class="d" d="M181.31,84.5c-11.63,3.13-22.31,15.11-28.48,31.96-9.33,25.46-7.8,49.37,4.37,68.39,.9,1.4,1.63,2.63,1.63,2.74s-2.05,.31-4.55,.46c-29.48,1.81-61.49,30.1-61.41,54.27,.07,23.73,25.89,28.17,30.77,5.29,1.96-9.21-1.94-29.81-5.64-29.81-2.01,0-7.82,13.63-8.69,20.4-.29,2.26-.64,4.64-.77,5.28l-.24,1.17-.44-1.17c-4.82-12.64,8.17-32.44,28.16-42.94,23.35-12.26,50.82-5.17,65.77,16.99l2.37,3.51-1.58,2.08c-8.35,10.94-10.02,25.43-4.62,40.09,1.44,3.91,1.48,3.91,3.58-.24l1.72-3.39-.7-2.68c-2.57-9.87-1.7-17.78,2.88-26.02l1.68-3.03,.67,1.63c11.56,28.16-11.05,61.17-41.9,61.17h-4.08l-3.68,3.78c-3.41,3.51-3.61,3.82-2.77,4.32,1.33,.78,17.45,.72,20.76-.08,11.49-2.78,19.14-6.94,26.53-14.41l3.41-3.45,3.9,3.92c11.38,11.46,29.39,17.09,44.58,13.94l1.59-.33-3.03-3.73c-2.77-3.41-3.19-3.74-4.86-3.84-15.82-1-26.21-5.26-34.4-14.1l-3.04-3.29,2.27-5.27c12.25-28.46-.31-59.04-31.09-75.73-11.23-6.09-15.25-10.78-16.84-19.67-1.08-6.09-.46-14.85,1.39-19.6,.6-1.53,.69-1.62,.5-.47-1.88,11.19,.07,23.46,4.66,29.39,1.88,2.43,11.39-11.33,13.77-19.9,3.97-14.33-3.12-28.12-14.47-28.12-8.84,0-15.1,7.31-16.36,19.07-.33,3.09-.37,2.48-.23-3.49,.37-16.33,6.69-30.87,19.18-44.13l3.08-3.27-2.56,3.5c-6.22,8.51-11.11,18.21-9.19,18.21,7.29,0,17.81-5.14,24.11-11.78,12.71-13.4,7.6-31.76-7.69-27.65m29.19,0c-17.15,5.5-8.78,30.71,12.08,36.39,5.55,1.51,22.3,1.21,23.94-.42,1.31-1.31-10.1-13.09-17.4-17.96-2.83-1.88-5.24-3.53-5.37-3.66-2.79-2.82,13.7,7.71,17.79,11.37,13.31,11.89,21.71,31.39,20.18,46.84l-.35,3.55-.31-5.14c-1.45-23.75-22.43-32.56-27.69-11.63-2.72,10.83,2.05,25.32,11.12,33.77,4.98,4.64,8.24-13.6,4.7-26.3-.79-2.82,.89,.92,2.17,4.86,6.28,19.24-2.73,34.3-31.57,52.77-3.34,2.14-6.17,3.97-6.29,4.07-.17,.15,1.96,4.41,2.6,5.2,.07,.09,1.25-.47,2.61-1.25,10.31-5.88,24.28-7.53,36.26-4.27,9.52,2.59,11.9,5.75,12.94,17.24,1.7,18.68,10.88,30.6,23.56,30.59,14.75,0,18.97-24.66,6.36-37.12-4.6-4.54-10.55-7.81-16.16-8.85-2.95-.55-2.94-.52,1.64,4.29,8.39,8.82,11,15.04,10.23,24.42l-.34,4.21-.82-3.74c-5.36-24.49-23.16-38.62-48.79-38.73l-7.95-.04,4.44-2.84c2.44-1.56,9.81-6.26,16.36-10.45,25.8-16.49,39.65-27.85,49.26-40.42,4.23-5.53,4.32-5.61,2.68-2.34-3.5,6.99-10.97,16.81-17.35,22.8-4.04,3.79-3.98,3.94,1.25,3.18,16.57-2.4,28.74-14.85,28.79-29.49,.06-17.01-20.69-18.51-30.46-2.2-.85,1.43-2.89,5.65-4.51,9.37-6.04,13.83-9.09,17.82-17.68,23.13-4.93,3.05-4.77,3.18-2.85-2.43,12.72-37.33-14.46-88.28-47.66-89.35-3.76-.12-5.75,.03-7.41,.57m47.46,4.24c-7.7,3.8-3.07,23.35,6.07,25.63l1.28,.32v-3.9c-.01-3.39-.65-7.74-1.6-10.91-.15-.51,.26,.16,.91,1.49,1.38,2.8,2.54,7.8,2.55,11,.01,3.09,.61,2.78,2.67-1.38,5.54-11.22-2.75-26.76-11.88-22.25m-115.37,1.57c-6.22,3.79-6.76,16.51-.98,23.08,1.04,1.18,2.16,2.14,2.49,2.14,.98,0,2.98-9.53,3.09-14.71l.05-2.34,.46,1.87c.62,2.52,.16,10.25-.76,12.8-.95,2.65-.71,2.81,1.68,1.16,11.25-7.77,5.41-30.98-6.04-24m137.43,16.27c-8.06,4.91-11.23,23.12-5.86,33.65,.97,1.91,2.16,3.32,2.8,3.32,1.13,0,5.3-14.66,6.24-21.95l.63-4.9,.34,3.27c.58,5.5-.91,14.13-3.71,21.58-1.4,3.71-1.27,3.94,1.23,2.21,9.08-6.29,13.65-20.86,9.77-31.15-2.26-6.01-7.2-8.61-11.45-6.02m-155.58,3.36c-5.78,1.78-7.73,12.2-3.78,20.19,3.2,6.47,11.37,13.57,14.27,12.41,.88-.35-2.22-14.35-4.34-19.57-1.71-4.2-.25-2.58,2.28,2.53,1.99,4.02,3.52,9.26,4.23,14.44,.38,2.8,.65,2.78,2.45-.23,8.09-13.52-2.17-33.75-15.11-29.76m81.44,13.54c-11.92,3-18.74,14.18-14.64,24,.97,2.32,1.29,2.16,3.31-1.71,3.05-5.84,7.2-11.08,10.75-13.58,1.29-.91,1.25-.8-.5,1.33-3.68,4.49-9.07,13.98-9.07,15.97,0,1.26,5.32-.12,9.81-2.54,16.98-9.16,17.25-27.72,.35-23.47m-102.91,15.69c-17.11,6.07-6.32,33.87,15.49,39.92,5.58,1.55,19.35,1.29,19.35-.37,0-.27-7.16-7.09-16.58-15.77-3.85-3.55-7.53-6.98-8.17-7.62-.64-.64,3.46,2.29,9.11,6.51,12.45,9.29,18.25,13.47,18.69,13.47,.92,0-.13-8.79-1.52-12.76-5.8-16.6-23.47-27.96-36.37-23.38m106.9,12.04c-16.88,5.52-22.28,34.22-9.25,49.16,1.81,2.08,1.59,2.38,3.28-4.51,1.39-5.67,9.22-29.32,9.46-28.59,.39,1.16-4.52,27.2-6.24,33.13-.89,3.08-.78,3.22,1.93,2.46,5.15-1.44,11.71-7.74,15.55-14.94,9.96-18.64,.69-41.75-14.73-36.71m107.78,23.18c-8.86,3.19-19.56,16.61-16.95,21.27,.5,.9,8.08-3.55,14.98-8.79l4.96-3.77-1.99,2.38c-3.27,3.91-9.81,9.11-14.45,11.49-2.4,1.23-1.82,1.69,2.1,1.68,9.36-.01,18.15-5.28,22.05-13.21,4.36-8.86-1.11-14.51-10.7-11.06m-218.91,7.04c-14.13,2.36-25.39,15.48-20.57,23.98,3.24,5.71,16.19,5.91,25.51,.39,7.03-4.17,16.38-15.72,14.35-17.75-1.23-1.23-19.45,4.88-26.68,8.96-3.21,1.81-3.51,1.91-2.1,.69,6.07-5.25,13.47-9.11,21.07-10.99,2.67-.66,5.48-1.37,6.25-1.57l1.4-.37-2.57-1.2c-4.84-2.26-11.13-3.08-16.66-2.15m174.28,5.29c-7.81,2.21-16.11,7.43-16.11,10.15,0,.51,19.57,.28,22.65-.27,.77-.14,.14,.17-1.4,.69-4.16,1.4-10.56,2.3-16.31,2.31h-5.1l1.05,1.11c9.4,10.01,35.95,5.18,36.13-6.57,.09-6.05-11.37-10.12-20.9-7.43m-123.99,15.55c-23.04,1.86-31.56,23.93-9.25,23.95,11.49,0,27.46-9.05,27.46-15.57,0-1.85-19.9,1.54-26.93,4.59-2.38,1.03-2.58,1.06-1.56,.23,3.99-3.25,13.89-6.57,22.42-7.52,7.35-.82,7.22-.74,3.7-2.52-4.69-2.37-10.69-3.57-15.84-3.16m153.42,2.51c-.77,.23-1.92,.83-2.57,1.33-1.31,1.01-1.51,.88,3.27,2.13,6.13,1.6,14.37,6.2,17.98,10.03l1.4,1.49-2.57-1.72c-5.6-3.76-17.97-8.63-21.92-8.63-1.81,0,2.84,9.34,6.68,13.41,8.9,9.44,23.61,10.33,25.97,1.57,2.77-10.28-16.02-23.32-28.25-19.61m-137.02,17.98c-5.82,1.57-9.27,3.99-10.59,7.45-4.02,10.52,16.89,16.03,31.29,8.24,3.04-1.64,6.38-4.86,5.73-5.51-.77-.77-12.17-1.65-18.77-1.44-7.38,.23-7.58-.03-1.05-1.35,3.05-.62,5.46-.73,11.67-.53,8.63,.27,8.8,.21,5.61-2.12-6.75-4.92-16.21-6.79-23.88-4.73m65.8,.05c-4.21,.7-10.74,3.62-10.74,4.8,0,.19,2.36,.47,5.25,.62,6.67,.35,13.2,1.99,18.98,4.78,4.2,2.03,5.78,3.34,2.22,1.86-7.25-3.03-26.47-5.13-26.45-2.89,0,.3,.61,1.62,1.36,2.92,8.59,14.97,36.95,17.03,36.93,2.68-.01-9.34-14.28-16.98-27.55-14.76m-99.01,7.01c0,1.75,5.4,12.79,8.29,16.94,2.64,3.79,1.32,2.77-2.32-1.8-1.52-1.91-3.92-5.84-5.37-8.81-3.16-6.44-3.59-6.17-3.3,2.02,.37,10.43,7.99,20.26,15.71,20.27,11.14,.02,5.31-21.28-7.53-27.5-2.42-1.17-5.48-1.8-5.48-1.13M-150.34,70.22m0,0,0,0"/></g></svg>