<?xml version="1.0" encoding="UTF-8"?><svg xmlns="http://www.w3.org/2000/svg" xmlns:xlink="http://www.w3.org/1999/xlink" viewBox="0 0 803.79 557.92"><defs><style>.f{clip-path:url(#e);}.g{clip-path:url(#d);}.h{fill:none;}.i{fill:#231f20;}</style><clipPath id="d"><rect class="h" width="803.79" height="557.92"/></clipPath><clipPath id="e"><rect class="h" width="803.79" height="557.92"/></clipPath></defs><g id="a"/><g id="b"><g id="c"><g class="g"><g class="f"><path class="i" d="M175.94,348.09c-4.46,0-6.77,.85-6.77,2.25,0,.74,.62,1.24,1.86,1.54,2.04,.5,4.79,.35,8.1,.65,6.71,.62,9.93,2.24,9.93,6.44,0,4.64-4.38,7.39-12.5,7.39-5.35,0-9.78-1.18-13.89-4.02l2.84-3.49c3.66,2.25,7.3,3.31,11.29,3.31,4.31,0,6.74-1.24,6.74-2.98,0-1.89-2.78-1.89-7.33-2.1-8.34-.35-12.44-2.01-12.44-6.29s4.19-6.86,11.93-6.86c5.23,0,9.46,1.07,12.59,3.14l-2.96,3.43c-3.02-1.62-6.06-2.39-9.4-2.39"/><rect class="i" x="198.78" y="344.45" width="5.2" height="21.4"/><polygon class="i" points="234.51 365.85 220 350.57 219.91 350.57 219.91 365.85 214.71 365.85 214.71 344.45 220.76 344.45 235.27 359.76 235.4 359.76 235.4 344.45 240.6 344.45 240.6 365.85 234.51 365.85"/><path class="i" d="M278.89,355.39c0,3.1-1.27,5.73-3.82,7.74-2.15,1.72-5.17,2.72-8.42,2.72h-15.07v-21.39h14.36c7.95,0,12.94,4.37,12.94,10.93m-6.8,3.6c.86-1.1,1.33-2.4,1.33-3.69,0-3.9-2.96-6.74-7.15-6.74h-9.49v13.18h9.52c2.24,0,4.46-1.06,5.79-2.75"/><polygon class="i" points="309.48 365.85 309.48 356.66 294.02 356.66 294.02 365.85 288.82 365.85 288.82 344.48 294.02 344.48 294.02 352.28 309.48 352.28 309.48 344.48 314.68 344.48 314.68 365.85 309.48 365.85"/><path class="i" d="M349.99,362.95c-2.69,2.22-6.51,3.52-10.88,3.52s-8.19-1.3-10.85-3.52c-2.42-2.01-3.66-4.7-3.66-7.83s1.27-5.77,3.69-7.77c2.72-2.25,6.59-3.54,10.85-3.54s8.15,1.33,10.84,3.54c2.43,2.01,3.69,4.67,3.69,7.77s-1.27,5.82-3.69,7.83m-10.84-15.01c-5.59,0-9.2,2.96-9.2,7.18s3.52,7.21,9.16,7.21,9.22-2.9,9.22-7.21-3.58-7.18-9.19-7.18"/><path class="i" d="M383.91,365.85l-5.26-7.57h-9.84v7.57h-5.2v-21.4h17.53c4.87,0,8.07,2.84,8.07,7,0,3.37-1.65,5.55-4.88,6.44l5.44,7.95h-5.85Zm.15-14.54c0-1.62-1.3-2.75-3.52-2.75h-11.74v5.62h11.76c2.22,0,3.49-1.1,3.49-2.87"/><polygon class="i" points="418.66 365.85 404.15 350.57 404.06 350.57 404.06 365.85 398.86 365.85 398.86 344.45 404.92 344.45 419.43 359.76 419.55 359.76 419.55 344.45 424.75 344.45 424.75 365.85 418.66 365.85"/><polygon class="i" points="475.81 365.85 470.96 365.85 458.31 344.45 464.13 344.45 473.38 360.12 482.63 344.45 488.46 344.45 475.81 365.85"/><rect class="i" x="495.31" y="344.45" width="5.2" height="21.4"/><polygon class="i" points="511.23 365.85 511.23 344.45 516.44 344.45 516.44 361.74 532.9 361.74 532.9 365.85 511.23 365.85"/><polygon class="i" points="540.9 365.85 540.9 344.45 546.1 344.45 546.1 361.74 562.57 361.74 562.57 365.85 540.9 365.85"/><path class="i" d="M592.94,365.85l-2.45-4.61h-13.72l-2.45,4.61h-5.26l11.38-21.4h6.41l11.35,21.4h-5.27Zm-9.33-17.5l-4.7,8.78h9.4l-4.7-8.78Z"/><path class="i" d="M630.18,362.95c-2.72,2.19-6.65,3.52-11.2,3.52-4.31,0-8.15-1.3-10.85-3.55-2.42-2.01-3.69-4.7-3.69-7.8s1.3-5.73,3.72-7.74c2.71-2.24,6.59-3.57,10.81-3.57,5.59,0,9.84,1.77,12.47,5.08l-5.41,1.89c-1.75-1.83-4.2-2.8-7.09-2.8-5.55,0-9.4,3.07-9.4,7.15,0,2.24,1.03,4.05,3.13,5.44,1.6,1.06,3.85,1.74,6.3,1.74,4.34,0,7.86-1.86,9.28-4.49h-10.38v-4.14h16.14v1.24c0,3.25-1.31,5.97-3.84,8.04"/><polygon class="i" points="643.35 365.85 643.35 344.45 666.55 344.45 666.55 348.56 648.55 348.56 648.55 352.93 661.05 352.93 661.05 357.04 648.55 357.04 648.55 361.74 667.38 361.74 667.38 365.85 643.35 365.85"/><path class="i" d="M667.33,291.26c0-16.59,.23-32.72,.23-38.48,0-22.58-7.37-40.78-44.7-40.78-31.1,0-47.24,12.21-47.24,31.34,0,7.37,5.76,11.06,11.98,11.06s10.83-1.38,13.82-5.53c4.15-5.76,1.38-16.36,7.84-23.27,3.92-4.14,8.06-5.07,12.21-5.07,8.52,0,15.67,3,15.67,21.66,0,8.98,.23,13.13-5.07,16.36-12.67,7.83-50.23,10.14-58.3,32.72h30.18c2.31-13.59,16.36-15.44,30.65-24.42,1.85-1.15,2.54-.92,2.54,.23v24.19h30.18Zm-30.18-116.13c-.23,2.31-.92,3.69-3,5.53-4.15,3.69-9.22,5.3-14.06,5.3-8.52,0-13.83-4.61-15.67-10.83h-32.26v.23c0,16.82,9.68,29.49,30.64,29.49,8.52,0,24.66-2.54,33.18-15.9,2.07-3.23,2.3-3.45,2.77-3.45s.46,.46,.46,.92c0,10.37,6.68,18.43,23.73,18.43,7.37,0,14.28-2.54,17.74-5.76,4.14-3.69,5.53-8.07,4.14-8.99-1.84-1.15-5.07,2.77-9.45,2.77-6.45,0-7.83-6.92-8.07-17.74h-30.18Zm-313.83,9.45c5.3-.23,19.35,3.45,19.35,19.58,0,8.99-6.68,14.75-16.82,17.05-4.15,1.15-15.9,2.54-20.97,3.23-5.3,.46-5.99,2.77-5.99,5.07,.46,3.92,2.99,4.38,7.6,4.15,14.29-.92,30.65-2.54,39.63-3.23,13.6-1.15,22.81-6.91,22.58-23.5-.23-23.27-28.57-31.8-47.92-31.8-24.2,0-61.52,14.52-61.52,61.75,0,27.42,18.43,56.68,58.06,56.68,16.82,0,26.27-4.61,34.1-9.45,4.15-2.54,17.74-14.74,13.59-18.43-2.54-2.3-6.22,1.43-12.21,4.43-5.3,2.76-13.54,6.35-23.68,6.35-19.36,0-39.86-17.05-39.86-46.54,0-18.43,10.09-44.88,34.05-45.34m191.44,72.35c0,7.6,.46,9.45-2.99,12.44-4.15,3.46-9.22,5.3-14.06,5.3-10.83,0-16.36-7.61-16.36-16.13,0-17.51,15.21-18.66,30.88-28.57,1.84-1.15,2.53-.92,2.53,.23v26.73Zm43.55,30.87c4.15-3.69,5.54-8.06,4.15-8.99-1.84-1.15-5.07,2.76-9.45,2.76-7.14,0-8.06-8.29-8.06-20.74,0-18.66,.23-38.48,.23-44.93,0-22.58-7.37-40.79-44.7-40.79-31.11,0-47.23,12.21-47.23,31.34,0,7.37,5.76,11.06,11.98,11.06s10.83-1.38,13.82-5.53c4.15-5.76,1.38-16.36,7.83-23.27,3.92-4.14,8.07-5.07,12.21-5.07,8.53,0,15.67,3,15.67,21.66,0,8.99,.23,13.13-5.07,16.36-14.28,8.76-59.91,10.6-59.91,42.4,0,16.82,9.68,29.49,30.64,29.49,8.52,0,24.66-2.53,33.18-15.9,2.08-3.23,2.31-3.46,2.77-3.46s.46,.46,.46,.92c0,10.37,6.68,18.43,23.73,18.43,7.37,0,14.29-2.53,17.74-5.76M420.67,123.96c0,8.06,0,14.23,0,49.94v83.72c0,24.42,2.76,28.34,11.75,28.34,5.99,0,7.14,2.07,7.14,3.92,0,2.07-1.85,3.69-7.14,3.69h-51.86c-5.76,0-7.36-1.61-7.36-3.69,0-1.84,1.37-3.92,7.36-3.92,8.76,0,12.21-2.77,12.21-28.34v-86.72c0-35.71,.46-39.17-6.45-39.17h-2.07c-2.53,0-5.53-.23-5.53-4.38,0-4.84,11.77-5.34,20.07-6.71,4.5-.74,11.27-2.22,16.8-2.22,2.07,0,5.07,.92,5.07,5.53m-223.9,154.86c-27.42-63.59-39.63-95.85-47.46-114.05-7.37-17.28-10.14-27.19-25.35-31.11-4.38-1.15-5.53-2.07-5.53-4.38,0-2.07,1.15-4.14,6.92-4.14h57.37c5.99,0,7.37,2.07,7.37,4.14,0,2.31-1.61,3-6.45,4.84-8.76,3.23-6.68,6.91-.69,22.81,4.15,10.83,6.22,17.28,26.04,67.05,6.68,16.82,6.45,16.82,7.37,16.82s1.15-.46,8.52-17.28c15.9-36.4,28.34-67.97,30.88-76.04,2.99-9.45,2.3-12.67-7.37-13.82-3.69-.46-6.68-1.38-6.68-4.38,0-2.54,1.39-4.14,6.45-4.14h43.09c5.3,0,6.91,2.07,6.91,4.14s-1.15,3.92-4.61,4.38c-13.13,1.84-15.9,4.84-23.27,21.66l-54.38,125.35c-4.84,11.06-6.68,12.9-8.99,12.9-2.77,0-4.38-1.38-10.14-14.75"/><path class="i" d="M667.38,393.04H165.14c-.97,0-1.75-.78-1.75-1.75s.78-1.75,1.75-1.75h502.24c.97,0,1.75,.79,1.75,1.75s-.78,1.75-1.75,1.75"/><polygon class="i" points="282.41 438.66 282.41 416.94 287.69 416.94 287.69 434.49 304.4 434.49 304.4 438.66 282.41 438.66"/><path class="i" d="M334.73,438.66l-2.49-4.68h-13.92l-2.49,4.68h-5.34l11.55-21.72h6.51l11.52,21.72h-5.34Zm-9.48-17.76l-4.77,8.91h9.54l-4.77-8.91Z"/><polygon class="i" points="367.1 438.66 352.37 423.15 352.28 423.15 352.28 438.66 347 438.66 347 416.94 353.15 416.94 367.88 432.48 368 432.48 368 416.94 373.28 416.94 373.28 438.66 367.1 438.66"/><path class="i" d="M408.98,435.72c-2.76,2.22-6.75,3.57-11.37,3.57-4.38,0-8.28-1.32-11.01-3.6-2.46-2.04-3.75-4.77-3.75-7.92s1.32-5.82,3.78-7.86c2.76-2.28,6.69-3.63,10.98-3.63,5.67,0,9.99,1.8,12.66,5.16l-5.49,1.92c-1.77-1.86-4.26-2.85-7.2-2.85-5.64,0-9.54,3.12-9.54,7.26,0,2.28,1.05,4.11,3.18,5.52,1.62,1.08,3.9,1.77,6.39,1.77,4.41,0,7.98-1.89,9.42-4.56h-10.53v-4.2h16.38v1.26c0,3.3-1.32,6.06-3.9,8.16"/><path class="i" d="M432.26,420.63c-4.53,0-6.87,.87-6.87,2.28,0,.75,.63,1.26,1.89,1.56,2.07,.51,4.86,.36,8.22,.66,6.81,.63,10.08,2.28,10.08,6.54,0,4.71-4.44,7.5-12.69,7.5-5.43,0-9.93-1.2-14.1-4.08l2.88-3.54c3.72,2.28,7.41,3.36,11.46,3.36,4.38,0,6.84-1.26,6.84-3.03,0-1.92-2.82-1.92-7.44-2.13-8.46-.36-12.63-2.04-12.63-6.39s4.26-6.96,12.12-6.96c5.31,0,9.6,1.08,12.78,3.18l-3,3.48c-3.06-1.65-6.15-2.43-9.54-2.43"/><path class="i" d="M467.69,439.29c-8.13,0-13.14-3.36-13.14-7.95v-14.4h5.28v13.68c0,2.67,2.85,4.47,7.86,4.47s7.86-1.83,7.86-4.47v-13.68h5.28v14.4c0,4.59-5.01,7.95-13.14,7.95"/><path class="i" d="M511.55,438.66l-2.49-4.68h-13.92l-2.49,4.68h-5.34l11.55-21.72h6.51l11.52,21.72h-5.34Zm-9.48-17.76l-4.77,8.91h9.54l-4.77-8.91Z"/><polygon class="i" points="543.92 438.66 529.19 423.15 529.1 423.15 529.1 438.66 523.82 438.66 523.82 416.94 529.97 416.94 544.7 432.48 544.82 432.48 544.82 416.94 550.1 416.94 550.1 438.66 543.92 438.66"/></g></g></g></g></svg>